<svg xmlns="http://www.w3.org/2000/svg" width="4506.667" height="4993.333"><path d="M2018.576 498.746c37.44 104.854 38.82 156.092 81.599 155.602 42.248-.485 62.617-42.666 111.186-42.666 32.603 0 90.176 61.476 140.946 54.325 50.017-7.046 88.02-5.566 113.46-43.696 26.309-39.432 22.654-67.53 31.597-125.57" style="font-variation-settings:normal;opacity:1;fill:none;fill-opacity:1;stroke:#17b42b;stroke-width:2;stroke-linecap:butt;stroke-linejoin:miter;stroke-miterlimit:4;stroke-dasharray:6,6;stroke-dashoffset:0;stroke-opacity:1;stop-color:#000;stop-opacity:1"/><path d="M1987.583 494.338c42.374 165.75 58.494 201.451 105.73 201.451 64.382 0 72.045-26.273 117.295-26.273 45.434 0 75.418 39.605 119.847 44.54 21.45 2.384 69.953-4.582 108.383-19.565 28.17-10.983 60.335-43.545 75.258-69.392 31.932-55.307 51.005-82.782 86.599-100.453 42.854-21.276 92.291-7.421 127.024-14.272 19.384-3.824 28.864-9.671 28.864-9.671" style="font-variation-settings:normal;opacity:1;fill:none;fill-opacity:1;stroke:#17b42b;stroke-width:2;stroke-linecap:butt;stroke-linejoin:miter;stroke-miterlimit:4;stroke-dasharray:6,6;stroke-dashoffset:0;stroke-opacity:1;stop-color:#000;stop-opacity:1"/><path d="M1957.394 495.821s23.106 66.393 25.419 86.515c2.312 20.123 9.842 95.805 19.093 111.928 19.745 34.414 72.447 51.528 93.585 50.642 46.4-1.945 85.181-6.87 106.828-2.607s71.407 20.283 90.345 21.674 40.96 3.316 69.978-1.655c29.02-4.97 61.381-5.023 136.78-53.01 75.4-47.987 94.044-71.683 143.224-93.081 49.18-21.399 151.12-62.666 170.774-75.63s49.191-33.784 49.191-33.784" style="font-variation-settings:normal;opacity:1;fill:none;fill-opacity:1;stroke:#17b42b;stroke-width:2;stroke-linecap:butt;stroke-linejoin:miter;stroke-miterlimit:4;stroke-dasharray:6,6;stroke-dashoffset:0;stroke-opacity:1;stop-color:#000;stop-opacity:1"/><path d="M1932.353 498.05s19.862 32.589 23.521 57.193 5.153 61.794 5.788 80.103c.732 21.086 14.613 74.375 34.603 95.7 23.962 25.56 51.708 48.929 100.981 53.692 38.626 3.733 62.271 1.145 84.703 2.513 16.175.987 96.776 18.293 142.282 12.8 45.506-5.494 113.629-15.811 185.68-57.38 81.401-46.962 119.08-90.72 159.493-101.085 31.45-8.066 68.025-12.214 131.525-56.72 48.21-33.789 75.686-57.779 91.822-46.4s2.56 35.043-30.7 87.63c-33.258 52.587-91.259 124.388-99.347 133.998s-23.668 24.15-33.258 38.83-111.412 166.557-145.223 202.15c-33.81 35.593-57.19 62.662-85.209 84.15-28.018 21.49-84.762 61.087-97.718 67.133s-46.93 24.964-59.597 33.848-44.202 24.509-52.702 29.772-39.904 29.885-55.673 47.275c-15.77 17.389-40.25 48.629-46.863 75.4-6.614 26.772-9.546 39.66 2.386 57.605 6.838 10.284 27.425 22.583 52.087 29.896 35.003 10.379 64.443 18.479 69.106 36.912 4.418 17.465 2.09 59.018-8.3 83.39-6.418 15.058-48.325 111.49-48.091 134.864.123 12.364 5.985 43.602 15.554 72.48 8.755 26.425 13.661 50.34 15.708 60.99 3.528 18.353 18.386 83.056 19.916 116.676s-1.228 47.75 10.99 54.223c8.768 4.646 24.561 8.167 34.05 7.834 11.148-.392 34.351-4.18 40.595-2.749 6.244 1.432 24.996 4.868 31.996 1.357 7-3.51 14.133-18.423 16.13-46.335s7.385-112.938 21.416-145.577c14.03-32.64 64.199-126.38 84.875-149.961s23.201-28.452 50.244-53.205c29.76-27.239 117.004-102.142 151.373-133.048 34.37-30.907 79.379-79.672 99.781-111.399s58.914-89.175 81.644-75.995c16.543 9.593 24.333 32.064 18.894 56.09-8.361 36.939-20.092 66.015-33.066 88.379-13.222 22.79-41.387 84.343-50.825 103.79-16.79 34.598-48.246 96.284-62.646 133.058-9.112 23.27-25.58 58.323-33.852 98.07-11.154 53.59-18.798 109.152-2.46 117.514s49.816 5.886 85.919-24.773c36.103-30.66 87.828-76.078 170.012-168.113 8.78-9.831 23.401-23.129 68.123-71.976 43.426-47.432 93.229-100.011 110.272-119.577 28.665-32.906 87.306-53.73 105.141-51.904 17.835 1.827 41.868 16.504 47.696 33.758 3.263 9.663 10.417 88.254 7.964 117.92s-7.538 59.888-19.34 87.299c-11.803 27.41-23.362 59.67-29.621 66.662s-39.359 61.436-53.238 90.804c-20.135 42.606-39.753 90.214-31.39 109.233 4.984 11.336 15.416 17.475 58.685 18.029s111.797-3.69 134.337.832c30.889 6.195 86.563 8.738 99.845 20.876 17.777 16.246 17.59 51.78 27.181 57.932 9.59 6.152 25.256 12.14 23.282 21.3-2.958 13.725-30.66 33.073-61.67 51.52-31.009 18.45-85.019 44.108-121.155 54.121-36.137 10.014-114.695 35.048-140.44 42.103-25.747 7.055-39.835 6.206-87.321 21.28-47.487 15.072-111.824 27.467-116.009 50.292-4.184 22.825 14.034 44.748 34.524 59.297s39.012 26.937 50.295 43.748c11.282 16.81 16.815 34.02 27.567 47.104s23.936 29.588 84.12 35.748 105.43 8.575 148.588 3.546c43.158-5.03 41.179-4.126 74.954-15.089 33.775-10.962 95.502-35.724 114.802-48.394s67.568-43.982 103.83-82.219c36.264-38.237 94.407-105.077 126.046-129.92 31.64-24.841 71.379-36.9 90.974-32.768s30.1 9.926 76.567 41.83" style="font-variation-settings:normal;opacity:1;fill:none;fill-opacity:1;stroke:#17b42b;stroke-width:2;stroke-linecap:butt;stroke-linejoin:miter;stroke-miterlimit:4;stroke-dasharray:6,6;stroke-dashoffset:0;stroke-opacity:1;stop-color:#000;stop-opacity:1"/><path d="M1911.755 498.58c11.087 30.02 19.073 59.245 19.275 87.4s1.335 76.584 16.243 109.156c14.907 32.571 35.322 72.37 64.12 92.012 28.796 19.64 40.295 32.264 87.642 35.355 47.346 3.092 132.306 10.147 149.49 12.02s66.796 3.959 103.615-1.566 60.914-8.466 87.246-14.959 95.657-28.427 129.38-57.165c33.724-28.737 33.83-26.347 52.293-43.188 18.463-16.84 38.303-36.958 66.645-45.399 28.343-8.44 42.998-15.226 55.727.738 12.73 15.964 14.053 59.308-7.968 91.73s-75.695 117.079-116.41 165.74c-40.716 48.663-126.154 154.314-173.114 172.948s-116.575 46.307-148.659 72.973-69.837 65.683-88.437 88.525-56.236 60.616-54.958 102.366 98.109 83.275 106.143 98.966 18.684 58.341.614 116.165c-18.07 57.823-26.679 69.667-17.806 131.44s5.39 43.257 13.017 64.865c7.629 21.608 20.097 83.06 20.732 109.64s3.803 130.147 18.697 141.324 29.97 6.482 40.28 5.33c10.31-1.151 23.398-11.223 36.076-10.08 12.678 1.141 52.06 26.727 67.658 19.288 15.599-7.439 23.105-49.932 22.314-64.342s4.642-105.624 17.953-147.019 34.028-101.446 67.315-140.587c17.893-21.04 43.76-52.883 78.61-86.84 29.984-29.217 67.547-59.693 101.609-89.749 0 0 46.071-42.517 79.67-68.52 15.554-12.04 38.733-44.312 54.53-25.567 7.64 9.066-21.318 43.305-37.716 73.274-15.632 28.569-34.077 71.133-34.077 71.133-11.443 31.332-59.656 177.481-66.185 206.946s-33.413 132.52 7.807 156.942c41.22 24.42 118.25-29.373 202.41-116.692 84.161-87.32 84.934-86.925 129.629-135.859 44.695-48.933 76.186-93.575 104.352-119.054 28.167-25.479 92.976-101.834 141.413-72.743s3.57 159.528-31.55 239.925c-35.12 80.396-56.006 111.695-72.691 146.186s-28.545 72.923-20.602 84.338 10.343 14.903 40.3 20.2 44.364 5.659 75.217 5.592c30.852-.067 121.202-.687 154.494 18.406 33.291 19.094 57.387 50.168 41.004 72.269-16.382 22.1-28.027 32.879-78.474 54.543s-121.531 43.188-213.974 67.806-187.47 46.497-209.017 71.34 4.808 51.557 14.081 65.245 27.223 37.185 24.766 69.8c-2.457 32.613-2.613 98.908 32.024 141.748s63.853 62.294 139.158 48.462 145.938-33.925 171.964-34.142c26.025-.217 102.607 16.751 161.564 44.465s134.903 79.653 172.497 51.25 29.359-96.048 25.074-142.311-16.665-137.216-4.692-183.836 28.73-65.819 51.797-79.822c23.068-14.004 61.769-23.557 106.655 1.068 44.886 24.624 85.138 83.401 85.138 83.401" style="font-variation-settings:normal;opacity:1;fill:none;fill-opacity:1;stroke:#17b42b;stroke-width:2;stroke-linecap:butt;stroke-linejoin:miter;stroke-miterlimit:4;stroke-dasharray:6,6;stroke-dashoffset:0;stroke-opacity:1;stop-color:#000;stop-opacity:1"/><path d="M3005.792 499.864c-83.23 106.838-107.394 136.37-156.36 213.753-48.967 77.384-66.967 95.168-91.126 119.93-24.158 24.76-41.008 47.691-58.985 76.825s-41.358 63.708-68.96 88.757-61.043 64.152-85.696 83.045-75.262 62.82-126.725 88.603-101.54 53.342-127.947 79.815-84.922 75.658-70.214 106.543c10.903 22.893 29.386 25.477 54.217 35.38 34.606 13.8 71.093 26.418 80.448 60.522s-2.42 66.227-17.806 99.717-44.557 94.594-44.336 127.662c.33 49.404 10.876 77.688 21.427 114.853s18.315 65.26 21.655 89.196c3.34 23.937 9.213 72.829 40.615 72.368s46.149-16.823 48.397-64.3c1.284-27.117-3.142-33.334 10.69-87.31 13.136-51.262 21.712-93.353 89.982-163.998s77.559-78.853 123.118-115.689c45.56-36.835 37.01-27.12 85.501-92.864 26.254-35.595 58.562-70.244 87.923-124.757 22.176-41.172 97.391-131.703 145.52-111.242 48.128 20.461 13.387 137.625 4.086 172.16s-32.173 117.632 4.19 143.275 64.959 20.262 98.014 6.618c33.056-13.643 119.291-75.92 172.57-120.607s87.35-50.599 119.261-48.304 58.73 23.378 59.044 65.03c.314 41.654-12.197 79.18-21.694 101.296-9.496 22.115-20.614 61.197-12.818 102.44s16.04 92.338-13.666 144.937c-29.705 52.598-77.49 96.838-78.227 118.018-.736 21.18.9 54.598 49.451 60.812 48.55 6.215 127.09-15.178 149.38-20.016 22.288-4.84 86.445-8.421 116.278-12.61 29.834-4.19 136.991-12.954 224.44-50.45 87.45-37.495 143.822-78.453 143.822-78.453" style="font-variation-settings:normal;opacity:1;fill:none;fill-opacity:1;stroke:#17b42b;stroke-width:2;stroke-linecap:butt;stroke-linejoin:miter;stroke-miterlimit:4;stroke-dasharray:6,6;stroke-dashoffset:0;stroke-opacity:1;stop-color:#000;stop-opacity:1"/><path d="M3092.303 497.758c-60.087 33.51-93.376 58.675-121.635 89.677-36.013 39.509-45.796 62.75-58.05 92.922-12.253 30.17-26.038 75.382-43.228 102.709s-38.374 47.535-60.292 66.35-62.583 57.609-96.363 97.2c-40.71 47.712-106.393 119.29-138.31 146.172-37.297 31.412-104.848 93.836-142.844 116.442s-87.221 69.293-77.337 110.455c9.885 41.163 51.178 90.629 70.237 111.353 19.059 20.725 43.923 48.607 58.406 59.91 14.484 11.304 21.603 22.022 51.818 28.872 30.216 6.85 54.842 20.596 115.81-28.417 60.966-49.014 59.357-66.306 77.413-100.143s98.589-158.796 129.419-183.226 124.455-83.288 153.053-64.998 18.295 65.901 5.103 132.825-29.489 144.725-13.46 163.691c16.028 18.967 59.116 34.762 111.905 10.487 52.79-24.276 89.062-66.288 137.329-102.01 48.266-35.722 116.113-70.302 156.63-42.406s41.818 48.404 48.889 72.91c5.62 19.476 1.919 59.147-9.42 94.651s-30.226 114.677-30.226 125.672 8.096 95.273 8.262 117.585c.165 22.313 1.639 45.919-2.45 56.898-4.087 10.979-21.246 34.063-30.595 46.585s-46.828 61.865-35.97 79.775 61.414 1.732 84.622-1.773c23.209-3.505 154.927-28.068 177.904-28.067 22.977 0 87.737-4.433 182.653-44.755 94.915-40.321 173.597-99.622 173.597-99.622" style="font-variation-settings:normal;opacity:1;fill:none;fill-opacity:1;stroke:#17b42b;stroke-width:2;stroke-linecap:butt;stroke-linejoin:miter;stroke-miterlimit:4;stroke-dasharray:6,6;stroke-dashoffset:0;stroke-opacity:1;stop-color:#000;stop-opacity:1"/><path d="M3125.052 498.946c-53.222 37.214-80.023 60.624-115.137 95.02-41.548 40.696-62.13 92.489-81.823 132.033-22.507 45.195-66.222 112.802-74.164 122.793s-40.755 40.447-72.354 63.978c-31.6 23.53-25.522 17.778-50.418 44.724s-118.45 133.44-164.489 173.301c-46.038 39.862-55.288 52.11-84.446 76.162-29.16 24.053-47.852 49.369-50.181 76.65s-.664 55.362 20.709 86.342 54.227 78.874 88.403 83.786c35.912 5.162 77.794 2.901 107.87-23.43 37.187-32.557 92.244-124.866 139.286-186.681s150.214-163.437 204.457-150.512 71.137 67.944 57.073 125.47c-14.064 57.527-27.505 137.224-24.184 155.455 3.32 18.23 16.804 47.124 47.444 51.387s72.226-16.167 120.556-53.684 23.357-16.233 63.896-51.024c40.538-34.792 84.724-86.842 157.16-63.288 67.161 21.84 62.115 159.601 57.734 203.642-3.264 32.802-9.464 59.278-11.294 75.066-1.83 15.79-1.037 117.77 15.45 170.27 16.489 52.5 66.398 107.294 177.418 107.294 92.74 0 181.1-64.946 239.445-98.721s90.949-61.01 90.949-61.01" style="font-variation-settings:normal;opacity:1;fill:none;fill-opacity:1;stroke:#17b42b;stroke-width:2;stroke-linecap:butt;stroke-linejoin:miter;stroke-miterlimit:4;stroke-dasharray:6,6;stroke-dashoffset:0;stroke-opacity:1;stop-color:#000;stop-opacity:1"/><path d="M3154.83 498.63c-34.486 29.064-62.823 50.578-97.55 96.04-34.729 45.463-52.279 76.15-66.864 96.944-14.584 20.793-66.233 94.544-85.895 123.429-19.66 28.884-18.137 32.688-46.972 60.745s-85.359 78.494-111.342 107.275-93.492 97.824-118.654 121.845c-25.161 24.02-35.109 35.66-65.089 59.305-29.98 23.644-102.11 88.644-90.078 141.022s55.277 109.169 109.397 105.492 78.95-41.383 90.39-67.103-.641-24.996 23.175-58.747c24.504-34.726 51.198-50.752 95.682-104.481 44.483-53.729 90.592-117.003 148.77-130.315 52.716-12.061 92.346 9.966 123.676 49.333s16.636 100.558 13.744 113.542c-2.893 12.984-39.377 113.57-12.186 145.016 27.192 31.444 35.368 24.117 65.776 15.676s93.628-58.31 121.64-84.631c28.013-26.321 102.86-93.006 157.539-74.784s80.33 81.8 83.002 122.815c2.673 41.013-3.186 225.646-2.988 254.075s4.18 117.595 43.773 145.744c39.591 28.15 47.564 38.32 98.494 34.279 50.93-4.042 76.938-12.995 118.552-28.357 41.613-15.362 116.973-49.82 148.064-69.197s55.618-38.69 55.618-38.69M3167.979 2267.118c15.748 12.101 17.766 23.401 18.716 35.526 1.458 18.622-10.787 28.073-26.696 25.764s-35.634-5.976-45.514-24.09-5.861-33.346 5.867-41.196c9.862-6.6 31.879-8.106 47.627 3.996zM3979.76 1892.101c-29.304 23.59-77.287 56.28-99.395 66.481s-50.469 26.915-79.493 38.655-70.158 26.66-92.804 38.416-44.277 27.553-54.648 39.315c-10.37 11.763-19.096 25.827-55.856 47.32s-69.827 35.402-96.25 45.37c-26.422 9.969-69.312 28.157-96.374 41.36-27.063 13.204-97.477 52.006-110.945 61.297s-72.848 40.4-64.946 82.041 60.16 45.178 90.886 50.45 75.617 5.171 113.24 1.3c37.623-3.87 118.39-19.262 174.191-60.41 55.8-41.15 105.02-115.585 134.868-149.838s111.99-118.654 166.283-117.89c52.778.744 53.366 17.57 73.766 33.819" style="font-variation-settings:normal;opacity:1;fill:none;fill-opacity:1;stroke:#17b42b;stroke-width:2;stroke-linecap:butt;stroke-linejoin:miter;stroke-miterlimit:4;stroke-dasharray:6,6;stroke-dashoffset:0;stroke-opacity:1;stop-color:#000;stop-opacity:1"/><path d="M1891.322 497.181c10.311 22.178 14.101 30.5 14.754 50.228s1.917 106.388 11.533 133.998 39.335 93.653 88.937 127.108 69.336 32.33 87.71 35.744c18.372 3.415 70.928 8.286 104.076 9.908s182.008 13.36 258.98-11.87c76.972-25.228 103.577-49.753 113.964-57.591s43.29-40.212 69.81-53.038 48.071-18.444 61.39-3.214 8.466 51.585-10.366 77.51c-18.832 25.927-72.51 96.627-100.584 130.829s-50.76 61.501-94.962 92.824c-44.203 31.322-53.652 36.447-77.101 48.134-23.45 11.688-68.438 30.755-91.448 49.593s-53.938 47.153-90.941 90.216-47.28 52.163-86.673 80.55-46.943 45.848-41.498 64.46 12.857 25.883 31.488 40.409 20.298 15.957 71.092 55.039 43.009 68.137 22.427 112.607c-12.025 25.98-26.812 31.058-31.734 61.278-2.321 14.246-.335 31.974 4.433 57.162 12.533 66.206 32.988 135.322 37.38 173.561s7.078 118.507 12.847 143.847c5.77 25.34 8.052 36.349 31.724 47.914s30.991 7.282 49.492 4.943 29.297-3.334 60.934 3.774 53.653 13.771 73.75-15.81c20.098-29.583 8.427-46.626 13.749-113.085 5.321-66.46 11.906-83.463 25.477-124.653s58.161-104.376 93.69-142.384 78.124-78.517 105.612-103.62c27.487-25.104 47.132-42.693 57.536-40.233s7.54 10.258-2.432 35.107c-9.97 24.85-39.804 83.14-51.557 124.379-11.752 41.238-37.052 122.098-40.021 159.182s-5.345 79.576 13.741 100.931 24.447 30.105 56.431 28.578c31.985-1.527 55.384-15.145 81.319-34.781s103.984-89.308 139.475-124.357c35.49-35.05 61.278-62.035 93.857-98.192s109.428-121.753 137.409-145.036 65.992-50.164 87.122-35.973c21.13 14.19 10.35 64.672-1.192 97.338s-17.732 49.65-28.95 76.713-98.093 206.244-91.845 241.443 31.87 49.93 117.654 57.911c85.785 7.981 134.739 6.294 159.34 18.795 24.603 12.502 29.012 32.878 10.273 54.906s-76.66 46.5-135.367 63.867c-58.708 17.367-175.353 34.866-219.592 45.129s-104.115 27.284-129.251 49.812-19.855 39.083-5.736 74.01c14.118 34.926 35.33 85 36.193 113.664.863 28.663-9.948 89.363 24.136 127.763s65.563 62.87 146.284 62.84c80.722-.03 178.665-15.295 238.56-10.963 59.894 4.332 120.47 22.684 177.668 55.787 57.197 33.103 86.036 52.09 131.61 40.315 45.576-11.775 50.694-25.187 60.667-48.957 9.973-23.771-2.768-105.236-8.13-136.646s-25.64-153.717-4.205-196.25c21.433-42.533 66.203-64.848 97.405-45.988 31.203 18.86 50.28 36.15 75.084 72.015s43.029 79.587 43.029 79.587M2749.721 2535.393c16.149.183 46.371 10.23 46.14 54.599-.213 40.587-28.07 63.888-55.834 53.852-34.695-12.541-36.74-60.878-28.086-81.292 7.94-18.73 21.632-27.343 37.78-27.16zM2403.836 2844.666c35.14 5.21 56.956 14.165 62.967 21.877 6.01 7.713 16.613 28.965-18.76 58.953s-54.363 34.4-82.377 38.555-49.49 8.805-61.992-19.879c-13.216-30.318 8.522-73.591 29.18-87.086 20.658-13.494 35.84-17.628 70.982-12.42zM2668.367 2963.87c-4.996 10.582-23.7 56.087-51.825 70.282s-48.5 11.607-64.466 1.944-32.65-37.474-30.843-67.086c1.808-29.611 49.495-83.61 74.558-95.21 25.062-11.6 49.726-18.44 74.564 6.554 24.838 24.993 3.008 72.935-1.988 83.517z" style="font-variation-settings:normal;opacity:1;fill:none;fill-opacity:1;stroke:#17b42b;stroke-width:2;stroke-linecap:butt;stroke-linejoin:miter;stroke-miterlimit:4;stroke-dasharray:6,6;stroke-dashoffset:0;stroke-opacity:1;stop-color:#000;stop-opacity:1"/><path d="M2322.44 2826c19.456-15.147 70.619-39.105 109.525-23.661 34.444 13.672 54.683 39.663 60.338 56.473s7.988 53.47-12.739 82.316c-20.726 28.845-58.395 44.367-106.47 43.132s-86.117-13.813-90.185-58.195c-4.068-44.383 20.076-84.918 39.531-100.065zM2573.316 2849.319c12.19-11.15 53.711-37.313 80.587-37.313 19.54 0 40.16 29.389 44.607 63.776s-3.669 76.744-23.989 113.75-24.125 54.568-58.448 65.574-70.415 6.45-92.131-12.756-47.692-61.833-17.569-120.026c25.04-48.375 54.752-61.856 66.943-73.005z" style="font-variation-settings:normal;opacity:1;fill:none;fill-opacity:1;stroke:#17b42b;stroke-width:2;stroke-linecap:butt;stroke-linejoin:miter;stroke-miterlimit:4;stroke-dasharray:6,6;stroke-dashoffset:0;stroke-opacity:1;stop-color:#000;stop-opacity:1"/><path d="M2289.155 2825.14c25.788-28.684 45.688-45.984 84.333-54.43s73.766 14.598 92.824 26.253 65.318 43.627 103.583 23.818 66.41-58.697 98.139-48.786 39.045 92.649 38.623 115.467.739 70.409-13.01 96.258c-13.75 25.85-40.438 69.329-76.552 88.214s-70.066 16.29-87.9 8.471-39.29-15.43-51.268-31.325c-11.977-15.894-37.456-34.57-46.698-36.233-9.242-1.664-84.902-9.345-103.02-12.214-18.118-2.87-61.481-15.184-69.345-48.255s4.502-98.554 30.29-127.238z" style="font-variation-settings:normal;opacity:1;fill:none;fill-opacity:1;stroke:#17b42b;stroke-width:2;stroke-linecap:butt;stroke-linejoin:miter;stroke-miterlimit:4;stroke-dasharray:6,6;stroke-dashoffset:0;stroke-opacity:1;stop-color:#000;stop-opacity:1"/><path d="M2467.942 2768.466c21.765 8.962 96.194 46.093 138.8 6.86 42.606-39.235 64.226-72.963 63.37-121.318s-4.07-78.198 5.571-105.128 31.696-55.797 70.695-54.2c39 1.599 63.995 35.298 70.242 70.669 6.246 35.37-4.097 52.43-15.987 71.469s-60.02 69.014-69.854 112.12-10.454 80.763-9.644 97.578 13.752 111.733-11.988 161.796c-25.739 50.064-54.698 90.526-90.072 104.067-35.374 13.542-70.918 21.594-102.034-.067-31.116-21.66-68.266-59.953-95.647-71.172-27.38-11.22-22.79-11.301-57.333-15.629s-74.885-3.871-101.332-33.547-31.364-53.724-33.238-75.756 14.497-95.216 65.018-129.462c50.52-34.247 67.534-40.297 101.641-39.331 27.605-.179 50.028 12.09 71.792 21.051z" style="font-variation-settings:normal;opacity:1;fill:none;fill-opacity:1;stroke:#17b42b;stroke-width:2;stroke-linecap:butt;stroke-linejoin:miter;stroke-miterlimit:4;stroke-dasharray:6,6;stroke-dashoffset:0;stroke-opacity:1;stop-color:#000;stop-opacity:1"/><path d="M2256.432 2799.53c22.414-26.51 44.78-53.935 80.217-66.422 35.437-12.488 96.446-6.52 130.38 8.466 33.932 14.986 68.797 35.693 114.12 9.475 45.324-26.22 65.793-143.42 65.47-166.92-.322-23.501-9.952-96.368 28.262-121.201 38.215-24.834 94.435-9.433 117.516 13.61s60.442 50.614 55.828 92.843-50.008 107.904-61.908 128.649c-11.9 20.744-35.366 77.556-39.197 120.497-3.832 42.94-3.216 50.245 2.21 73.913 5.425 23.669 16.676 108.65 8.717 135.089-7.96 26.439-7.182 45.398-43.866 83.823s-79.739 50.701-103.607 52.12c-23.868 1.417-57.871-.213-81.205-10.201-23.333-9.99-58.407-31.792-80.556-53.33-22.149-21.54-47.621-35.627-99.864-42.909-52.244-7.28-105.562-19.61-131.16-85.297-25.6-65.688-4.404-121.29 38.643-172.205z" style="font-variation-settings:normal;opacity:1;fill:none;fill-opacity:1;stroke:#17b42b;stroke-width:2;stroke-linecap:butt;stroke-linejoin:miter;stroke-miterlimit:4;stroke-dasharray:6,6;stroke-dashoffset:0;stroke-opacity:1;stop-color:#000;stop-opacity:1"/><path d="M2227.028 2747.632c26.962-25.703 50.065-60.561 95.815-77.115 38.443-13.91 85.427-8.14 112.382 1.811s89.149 40.785 134.238-1.127c45.089-41.91 32.276-106.74 33.326-148.055 1.051-41.314 8.611-77.444 27.19-96.929 18.577-19.485 43.769-23.117 61.391-19.22 17.623 3.895 83.726 30.441 98.68 37.358s25.493 10.98 33.663 11.96 56.452 13.693 72.586 46.958c16.133 33.266-6.568 92.311-23.012 123.908s-62.407 101.887-77.958 151.942c-15.55 50.054-2.24 129.972 1.464 155.303 3.703 25.332 11.994 130.794-19.11 177.025s-72.42 88.812-139.78 103.194-115.187 9.461-168.266-32.684c-53.08-42.145-76.32-67.922-152.94-91.171s-115.264-43.526-144.885-124.69c-29.62-81.165-10.477-155.844 55.216-218.468zM1985.248 2255.003c.912-26.664 7.547-49.082 31.175-57.732 26.303-9.63 49.579 22.78 48.106 49.311-1.28 23.045-9.9 40.788-33.74 58.15-42.82 24.722-46.187-29.622-45.542-49.729z" style="font-variation-settings:normal;opacity:1;fill:none;fill-opacity:1;stroke:#17b42b;stroke-width:2;stroke-linecap:butt;stroke-linejoin:miter;stroke-miterlimit:4;stroke-dasharray:6,6;stroke-dashoffset:0;stroke-opacity:1;stop-color:#000;stop-opacity:1"/><path d="M1975.715 2222.604c16.895-32.27 36.409-58.977 73.257-46.864 36.847 12.114 44.33 65.014 36.182 99.298s-37.812 72.245-72.878 69.29c-47.999-4.047-53.358-89.642-36.56-121.724zM1926.126 2445.08c16.765-24.092 37.431-62.79 66.953-48.596s39.878 51.391 33.391 75.6c-9.997 37.31-66.312 90.319-90.12 95.325-23.809 5.005-31.748-1.406-46.533-15.62-14.785-14.216-19.191-41.281 2.363-65.554 21.554-24.272 23.789-26.56 33.946-41.156z" style="font-variation-settings:normal;opacity:1;fill:none;fill-opacity:1;stroke:#17b42b;stroke-width:2;stroke-linecap:butt;stroke-linejoin:miter;stroke-miterlimit:4;stroke-dasharray:6,6;stroke-dashoffset:0;stroke-opacity:1;stop-color:#000;stop-opacity:1"/><path d="M1890.64 2423.984c21.007-20.582 41.513-63.667 76.52-63.46 35.01.209 51.742 10.29 70.223 47.4 18.48 37.11 9.4 61.44 6.725 69.67-2.673 8.231-69.913 113.277-113.22 114.948-43.305 1.672-81.63-30.53-86.831-47.286s-11.2-64.655 46.584-121.272z" style="font-variation-settings:normal;opacity:1;fill:none;fill-opacity:1;stroke:#17b42b;stroke-width:2;stroke-linecap:butt;stroke-linejoin:miter;stroke-miterlimit:4;stroke-dasharray:6,6;stroke-dashoffset:0;stroke-opacity:1;stop-color:#000;stop-opacity:1"/><path d="M1871.96 2415.752c13.454-17.995 34.866-37.096 45.29-49.923 10.422-12.827 26.851-26.207 27.458-60.118s9.907-78.241 18.304-95.588 26.623-60.77 73.466-64.4c46.842-3.632 84.666 50.237 89.757 79.954 5.09 29.717-12.404 57.272-28.725 75.515s-46.968 49.33-47.697 62.81 5.634 26.046 6.876 39.517c1.24 13.471 3.624 46.745.418 58.001s-2.58 18.207-6.889 28.16c-4.31 9.955-57.043 94.415-102.112 107.97s-75.52 2.289-97.86-17.876c-17.084-15.42-32.61-55.991-24.54-86.106 5.02-18.736 28.44-54.088 46.254-77.916z" style="font-variation-settings:normal;opacity:1;fill:none;fill-opacity:1;stroke:#17b42b;stroke-width:2;stroke-linecap:butt;stroke-linejoin:miter;stroke-miterlimit:4;stroke-dasharray:6,6;stroke-dashoffset:0;stroke-opacity:1;stop-color:#000;stop-opacity:1"/><path d="M1940.297 2633.022c-25.162 15.081-63.068 38.34-81.977 32.599-18.909-5.743-35.582-24.354-44.334-54.024s-15.429-49.787-20.036-57.995-21.642-29.767-14.898-63.38c6.745-33.613 7.428-34.873 25.662-61.955 18.235-27.08 90.989-84.924 94.108-116.303 3.119-31.38 8.843-108.503 40.6-157.09 36.019-55.107 95.872-71.6 142.931-61.648 29.552 6.25 59.161 43.271 69.269 66.592 4.848 11.188 14.987 47.238 14.154 84.98-1.02 46.222-6.067 83.66-12.566 93.584-12.491 19.074-25.956 37.986-31.777 50.123s-24.09 59.474-26.377 74.25-7.432 23.816-10.282 27.401c-1.561 1.964-8.216 27.422-20.162 44.34-9.744 13.798-60.61 56.563-74.377 66.041-30.445 20.96-49.938 32.485-49.938 32.485z" style="font-variation-settings:normal;opacity:1;fill:none;fill-opacity:1;stroke:#17b42b;stroke-width:2;stroke-linecap:butt;stroke-linejoin:miter;stroke-miterlimit:4;stroke-dasharray:6,6;stroke-dashoffset:0;stroke-opacity:1;stop-color:#000;stop-opacity:1"/><path d="M1940.26 2614.317c-27.102 10.741-66.688 16.316-87.46-.245-23.124-18.437-32.236-27.897-41.07-50.504-8.834-22.608-17.282-50.745-17.282-71.867 0-32.504 50.831-63.683 85.414-110.679 9.668-13.137 29.274-32.772 35.85-53.484 7.248-22.832 1.234-47.138 7.152-69.223 11.69-43.627 13.6-85.038 59.583-119.058s125.202-32.659 152.27 35.72c24.299 61.387 19.62 113.798-4.73 141.156s-52.72 49.452-53.909 62.342c-1.188 12.89 1.942 46.06-3.073 66.898-5.016 20.838-17.77 67.292-32.18 89.532-14.412 22.24-61.214 63.817-100.564 79.412z" style="font-variation-settings:normal;opacity:1;fill:none;fill-opacity:1;stroke:#17b42b;stroke-width:2;stroke-linecap:butt;stroke-linejoin:miter;stroke-miterlimit:4;stroke-dasharray:6,6;stroke-dashoffset:0;stroke-opacity:1;stop-color:#000;stop-opacity:1"/><path d="M1865.645 495.703c10.716 17.102 25.204 40.486 24.1 102.416-1.105 61.929 8.34 110.59 20.352 137.916s66.648 90.379 93.599 103.964c26.95 13.585 47.423 21.143 101.576 21.362s56.82-.22 125.146 12.16c68.327 12.382 144.213 15.652 215.51-2.608s97.706-23.135 131.528-47.835 56.243-69.064 92.163-73.055 18.676 34.295-6.17 71.165c-24.847 36.87-73.047 89.508-91.514 106.558s-88.997 69.487-112.692 85.157c-23.695 15.669-155.205 102.705-202.82 155.135-47.616 52.43-72.708 81.404-94.399 95.824-21.69 14.42-116.578 52.21-126.25 97.083-9.673 44.873 29.399 55.227 61.233 67.439s98.585 26.361 124.7 52.212 28.064 31.036 7.53 69.288c-20.533 38.253-50.552 76.3-53.44 99.771-2.89 23.471 14.282 81.27 23.509 108.513s35.49 149.37 26.447 191.242-48.56 77.107-95.955 94.754-94.204 32.516-116.888 39.487-80.619 32.98-94.197 54.39-19.884 34.026-24.723 69.445c-4.839 35.42-13.7 109.376-28.718 132.376-15.018 23.001-83.308 81.363-99.24 128.404-15.933 47.04-3.47 71.705 11.93 108.85s12.811 50.169 20.528 71.883c7.716 21.715 21.618 50.222 48.21 61.937 26.592 11.716 69.636-26.445 91.004-46.249 21.367-19.804 61.423-58.488 85.274-74.18s64.999-47.013 73.855-60.842 22.201-37.654 23.807-69.152c2.352-46.125 26.819-48.693 46.972-99.833 21.111-53.57 11.268-140.315 43.07-185.624 31.802-45.31 61.602-79.218 117.305-78.61s124.073 30.583 147.165 17.349 37.774-50.524 39.247-79.045c1.474-28.521.038-139.386 11.81-179.108s49.81-128.865 89.793-139.147c39.984-10.283 43.14 37.792 40.907 92.005-2.232 54.213-6.302 117.618-2.343 147.832 3.96 30.215 15.548 102.91 97.571 74.64s179.873-130.077 235.395-191.278c55.52-61.2 87.573-90.54 112.48-111.343 24.909-20.803 40.57-47.214 48.94-56.21 8.371-8.994 38.387-39.498 55.822-23.05 17.434 16.45 14.112 56.186-3.103 107.01-17.215 50.823-77.798 178.614-74.761 209.205 3.036 30.59 18.262 46.47 52.48 66.844 34.219 20.374 69.166 34.789 71.647 57.775 2.48 22.986-9.797 30.13-92.244 44.836s-188.756 30.353-235.166 58.563-54.218 63.536-28.638 97.885 53.498 61.722 48.823 112.268-3.576 158.133 61.935 207.502c65.512 49.369 171.116 74.952 268.582 51.916s125.058-28.86 185.629-19.097 86.204 23.66 105.752 35.311 78.863 52.432 109.076 66.348 68.188 23.953 106.34-2.297c38.15-26.25 52.908-68.036 43.233-127.135s-37.344-152.929-37.638-182.356-2.349-73.091 31.377-94.407c33.726-21.315 53.59-4.877 88.46 53.39 34.87 58.269 28.193 72.447 72.251 128.131M2998.164 3232.022c3.013-40.07-8.68-101.171 11.976-126.643s53.766-22.72 82.214-11.326c28.449 11.394 53.529 76.12 62.375 100.738 8.847 24.618 29.11 64.32 38.861 73.584s35.349 31.462 52.205 39.114 37.661 33.078 29.453 55.24c-8.208 22.163-30.408 42.477-51.578 51.151s-57.698 15.314-67.92 23.927-34.812 26.947-59.323 25.812c-24.511-1.136-60.906-6.043-86.793-36.066s-19.954-84.688-15.14-122.88c4.813-38.193 2.144-52.351 3.67-72.651zM3562.309 3212.547c47.68 1.995 114.591-2.82 126.028 71.111s-41.761 147.999-97.086 175.772c-71.54 35.915-138.931 44.256-190.044 10.68-22.484-14.77-52.321-71.462-32.08-138.406 12.175-40.267 41.778-72.9 72.557-91.339 25.445-15.244 64.526-30.166 120.624-27.818z" style="font-variation-settings:normal;opacity:1;fill:none;fill-opacity:1;stroke:#17b42b;stroke-width:2;stroke-linecap:butt;stroke-linejoin:miter;stroke-miterlimit:4;stroke-dasharray:6,6;stroke-dashoffset:0;stroke-opacity:1;stop-color:#000;stop-opacity:1"/><path d="M3668.36 3186.592c44.071 28.243 68.74 65.197 70.636 131.69 1.896 66.495-24.053 123.122-69.469 164.62-45.416 41.496-139.651 61.987-203.59 61.368-63.94-.62-121.788-43.138-144.742-80.212-22.954-37.073-31.269-89.382 1.985-142.54 33.255-53.158 72.854-96.627 128.045-123.172 64.07-29.366 159.376-45.101 217.135-11.754z" style="font-variation-settings:normal;opacity:1;fill:none;fill-opacity:1;stroke:#17b42b;stroke-width:2;stroke-linecap:butt;stroke-linejoin:miter;stroke-miterlimit:4;stroke-dasharray:6,6;stroke-dashoffset:0;stroke-opacity:1;stop-color:#000;stop-opacity:1"/><path d="M3749.216 3184.883c65.197 23.758 155.294 49.513 190.426 99.461 20.619 29.315 17.09 47.32-5.417 80.325-22.507 33.004-32.198 49.666-42.449 77.894-10.25 28.227-32.535 88.312-90.302 124.879-57.766 36.567-108.56 68.677-128.468 79.02s-91.126 57.816-154.748 24.066-90.364-10.295-132.534-9.613-106.797-1.489-130.729-36.91c-23.93-35.42-4.163-105.79-21.423-124.114s-15.54-25.338-78.872.635-128.977 41.102-161.527 5.508c-32.551-35.595-60.445-83.219-65.126-141.222s26.567-68.578 35.525-114.637-13.01-66.99 1.326-108.834 36.192-78.455 91.192-76.113 103.93 43.429 134.358 84.824c30.429 41.396 81.41 126.28 111.462 124.432 30.05-1.847 116.65-111.066 210.597-127.226 53.433-9.192 116.241-6.273 236.709 37.625z" style="font-variation-settings:normal;opacity:1;fill:none;fill-opacity:1;stroke:#17b42b;stroke-width:2;stroke-linecap:butt;stroke-linejoin:miter;stroke-miterlimit:4;stroke-dasharray:6,6;stroke-dashoffset:0;stroke-opacity:1;stop-color:#000;stop-opacity:1"/><path d="M3964.53 3230.656c-84.804-30.97-220.678-85.271-290.427-100.708-69.75-15.438-130.61-22.41-164.325-22.056-33.716.354-83.293-12.66-108.679 5.006-25.386 17.668-33.942 24.09-50.066 42.938-16.125 18.847-40.15 59.105-89.635 13.696-49.484-45.41-72.382-76.068-102.71-97.922s-65.038-46.076-100.06-44.05c-35.024 2.025-68.615 4.524-89.419 41.509s-33.664 96.762-39.87 129.439c-9.99 52.591-30.954 90.519-43.624 110.878-12.671 20.36-34.177 71.052-5.633 120.189s66.581 84.316 83.677 93.833c17.095 9.517 49.297 32.582 96.719 28.684s77.56-14.256 94.578-23.138c17.018-8.881 40.453-22.806 54.574 9.866 16.128 37.316-3.611 84.252 19.808 114.236 17.948 22.979 30.874 34.976 71.623 40.792 27.617 3.942 47.02 4.582 84.357 3.32 44.274-1.498 63.97 2.542 94.2 11.877s91.739 26.042 140.587 15.565 73.29-24.31 94.963-49.74 50.229-49.84 82.845-65.551 94.483-49.523 105.21-82.187 19.316-80.812 27.56-89.468c8.246-8.656 24.653-5.508 32.444-31.541" style="font-variation-settings:normal;opacity:1;fill:none;fill-opacity:1;stroke:#17b42b;stroke-width:2;stroke-linecap:butt;stroke-linejoin:miter;stroke-miterlimit:4;stroke-dasharray:6,6;stroke-dashoffset:0;stroke-opacity:1;stop-color:#000;stop-opacity:1"/><path d="M3958.853 3183.86c-95.73-38.983-255.94-93.778-330.259-104.399-74.317-10.621-150.063-18.054-197.49-9.891-51.558 8.873-66.422 26.347-81.813 36.494-22.73 14.985-42.873 51.76-92.054-1.365-49.18-53.124-99.936-98.505-158.958-121.513s-98.43-4.576-115.263 5.092-43.377 41.694-57.095 92.282c-13.718 50.589-23.615 118.55-40.757 158.912-13.343 31.418-70.717 109.133-68.512 149.737s32.907 107.151 82.6 154.314 93.1 71.273 142.612 71.67c49.512.395 62.246-7.684 74.657-14.007 18.65-9.5 47.923-32.897 66.973 7.467 19.05 40.365 18.63 63.101 31.685 82.4 13.056 19.298 12.153 38.137 82.79 42.343 70.635 4.205 60.612-1.087 90.227 2.926 36.826 4.989 163.135 38.332 256.01 34.683 52.463-2.061 105.028-42.398 122.099-67.328 18.851-27.529 49.46-75.558 76.527-90.67 27.068-15.114 65.93-34.773 81.42-72.916 15.488-38.143 24.67-52.081 40.071-73.893" style="font-variation-settings:normal;opacity:1;fill:none;fill-opacity:1;stroke:#17b42b;stroke-width:2;stroke-linecap:butt;stroke-linejoin:miter;stroke-miterlimit:4;stroke-dasharray:6,6;stroke-dashoffset:0;stroke-opacity:1;stop-color:#000;stop-opacity:1"/><path d="M3964.285 3134.113c-43.967-12.3-284.149-94.96-376.985-97.044-92.837-2.083-120.897 7.011-148.467 12.973s-107.571 24.071-139.226 3.173c-31.654-20.898-101.24-81.407-175.523-94.338s-118.836-9.676-141.367-1.35-71.353 32.447-91.504 83.054-27.781 72.502-32.785 97.949c-5.005 25.447-18.62 96.107-32.249 116.496-13.629 20.39-55.732 91.764-49.805 129.05s14.957 68.462 42.525 111.4c27.567 42.94 66.413 89.387 95.91 115.058 29.499 25.67 74.868 58.487 134.35 53.915 59.483-4.571 68.008-22.902 79.332-25.22 11.325-2.318 33.873-11.312 44.84 33.84 10.966 45.15 16.165 88.457 81.951 99.489s61.368 9.84 82.762 8.324c21.393-1.515 78.452-6.878 105.415-.666 26.962 6.212 70.867 17.612 84.906 21.392 22.02 5.928 38.32 16.158 92.433 25.21 35.801 5.988 104.183-40.432 163.51-75.857 46.761-27.922 171.623-50.56 171.623-50.56" style="font-variation-settings:normal;opacity:1;fill:none;fill-opacity:1;stroke:#17b42b;stroke-width:2;stroke-linecap:butt;stroke-linejoin:miter;stroke-miterlimit:4;stroke-dasharray:6,6;stroke-dashoffset:0;stroke-opacity:1;stop-color:#000;stop-opacity:1"/><path d="M3962.958 3102.756c-44.31-11.069-87.787-23.13-114.734-34.885-26.948-11.756-116.315-49.877-162.428-58.066s-62.194-12.618-126.444-4.797-102.259 13.148-116.184 14.886-71.398 15.227-137.55-20.756-117.472-61.567-134.626-66.996-129.872-54.29-202.598-12.165c-72.727 42.125-98.162 105.208-122.932 162.361s-20.565 103.577-25.31 118.107c-4.746 14.53-27.24 66.113-42.98 86.715-15.741 20.602-43.846 76.098-28.036 119.138s31.59 44.845 48.499 81.833c16.908 36.988 72.259 154.518 123.128 193.515 50.87 38.998 56.163 29.858 95.324 34.988s109.662 4.043 124.252 24.492c14.591 20.449 39.957 82.85 95.516 84.302s186.146-9.747 203.646-5.91c17.5 3.839 122.894 27.31 165.477 62.368 42.584 35.059 95.134 52.174 199.574 49.567s147.608-8.661 147.608-8.661M3954.352 3963.87c-16.578-1.545-83.716-14.135-110.908-12.472-27.191 1.663-51.863 3.174-61.208 17.93-9.346 14.756-5.886 32.924 20.085 58.69 39.798 39.485 122.443 84.793 151.132 110.267" style="font-variation-settings:normal;opacity:1;fill:none;fill-opacity:1;stroke:#17b42b;stroke-width:2;stroke-linecap:butt;stroke-linejoin:miter;stroke-miterlimit:4;stroke-dasharray:6,6;stroke-dashoffset:0;stroke-opacity:1;stop-color:#000;stop-opacity:1"/><path d="M3938.732 3995.806c-15.655-3.474-49.758-14.643-67.352-5.938s-28.92 22.209 3.528 38.959 76.72 38.471 76.72 38.471M3935.725 4331.036c-13.957-19.796-26.19-36.013-33.479-49.434s-38.756-58.177-51.3-75.653c-12.546-17.476-39.055-53.214-56.776-65.881-17.72-12.667-24.942-12.447-35.515-47.328s-8.653-100.946-63.24-128.973c-54.585-28.027-114.34-23.386-145.322 12.009s-20.17 71.454-14.11 88.752c6.058 17.297 17.371 50.843-3.586 87.92s-59.98 98.535-25.052 139.04 40.854 43.376 40.854 43.376" style="font-variation-settings:normal;opacity:1;fill:none;fill-opacity:1;stroke:#17b42b;stroke-width:2;stroke-linecap:butt;stroke-linejoin:miter;stroke-miterlimit:4;stroke-dasharray:6,6;stroke-dashoffset:0;stroke-opacity:1;stop-color:#000;stop-opacity:1"/><path d="M3887.155 4332.048c-1.97-13.201-16.463-53.027-27.765-69.063s-57.351-82.73-81.239-97.512-38.964-39.358-48.51-90.332c-9.544-50.975-66.066-82.61-79.564-82.947-13.498-.336-51.536 15.795-51.99 50.604-.453 34.809-.28 65.92-7.78 89.126-7.501 23.206-14.327 49.448-21.849 62.591s-30.397 65.274-3.349 96.93c27.048 31.654 44.007 42.875 44.007 42.875" style="font-variation-settings:normal;opacity:1;fill:none;fill-opacity:1;stroke:#17b42b;stroke-width:2;stroke-linecap:butt;stroke-linejoin:miter;stroke-miterlimit:4;stroke-dasharray:6,6;stroke-dashoffset:0;stroke-opacity:1;stop-color:#000;stop-opacity:1"/><path d="M3854.139 4323.68c-12.844-22.914-24.767-52.336-31.679-61.474-6.912-9.139-14.503-24.44-32.96-37.643-18.456-13.204-42.59-24.063-60.204-74.992-16.227-46.918-28.883-80.275-63.895-55.708s-49.228 75.995-43.088 105.65c6.14 29.654 13.102 54.886 49.49 88.394 12.385 11.404 33.605 26.897 60.695 43.903M2180.815 4318.396c18.706-25.315 62.984-100.637 75.426-121.327s86.234-154.382 124.329-205.81c38.095-51.43 126.515-145.795 207.468-160.062 80.954-14.267 159.77 22.142 206.943 90.39 47.173 68.247 59.828 130.773 66.083 149.385 15.363 45.714 41.947 162.752 138.393 259.68" style="font-variation-settings:normal;opacity:1;fill:none;fill-opacity:1;stroke:#17b42b;stroke-width:2;stroke-linecap:butt;stroke-linejoin:miter;stroke-miterlimit:4;stroke-dasharray:6,6;stroke-dashoffset:0;stroke-opacity:1;stop-color:#000;stop-opacity:1"/><path d="M2252.687 4331.281c13.837-11.076 56.044-50.208 66.547-81.689s25.055-119.03 22.243-129.69c-4.864-18.437 46.954-95.79 93.463-86.067 40.793 8.528 55.007 2.81 82.174-16.524 38.96-27.726 35.917-34.617 54.013-57.079s50.63-56.297 92.288-60.781c41.66-4.484 69.747.706 104.292 69.888 20.224 40.502 18.037 88.058 27.083 129.26 6.95 31.658 12.526 56.202 19.23 78.25 14.656 48.2 9.378 78.667 74.206 155.802" style="font-variation-settings:normal;opacity:1;fill:none;fill-opacity:1;stroke:#17b42b;stroke-width:2;stroke-linecap:butt;stroke-linejoin:miter;stroke-miterlimit:4;stroke-dasharray:6,6;stroke-dashoffset:0;stroke-opacity:1;stop-color:#000;stop-opacity:1"/><path d="M2359.284 4318.692c3.345-18.772 3.861-93.431 20.012-111.837 16.15-18.405 43.691-23.927 63.848-23.133s51.492 10.12 74.985-14.774c23.493-24.895 36.866-61.235 45.794-85.243s33.279-75.6 66.14-89.636 62.171-5.226 85.38 47.906c23.208 53.133 47.565 157.91 48.59 163.254s2.223 23.523 4.014 36.668c1.79 13.144 5.035 40.537 32.44 90.808" style="font-variation-settings:normal;opacity:1;fill:none;fill-opacity:1;stroke:#17b42b;stroke-width:2;stroke-linecap:butt;stroke-linejoin:miter;stroke-miterlimit:4;stroke-dasharray:6,6;stroke-dashoffset:0;stroke-opacity:1;stop-color:#000;stop-opacity:1"/><path d="M2434.76 4330.008c3.97-7.9 29.074-34.555 64.027-61.604 34.953-27.05 60.142-45.68 76.55-71.737s26.094-70.324 30.112-88.81c4.02-18.488 12.32-54.84 48.503-55.34s61.513 54.262 65.266 80.453c3.752 26.19 4.816 65.396 4.729 76.727-.088 11.332 1.65 53.479 38.657 124.347M1651.624 3630.266c32.297-30.172 103.997-85.161 129.492-81.015s36.468 40.383 38.024 73.678-5.567 79.18-35.688 113.446c-38.416 43.702-98.845 87.946-148.02 103.629-50.338 16.054-67.095 7.246-78.818 5.995s-45.936-28.474-29.683-62.45 66.36-98.79 124.693-153.283z" style="font-variation-settings:normal;opacity:1;fill:none;fill-opacity:1;stroke:#17b42b;stroke-width:2;stroke-linecap:butt;stroke-linejoin:miter;stroke-miterlimit:4;stroke-dasharray:6,6;stroke-dashoffset:0;stroke-opacity:1;stop-color:#000;stop-opacity:1"/><path d="M1681.825 3567.898c27.973-28.665 75.059-64.998 97.177-70.666 15.623-4.003 46.858-.264 67.834 42.991 21.608 44.56 51.319 140.376 65.66 152.124 14.343 11.748 37.272 17.732 54.98-12.243s37.852-100.081 56.426-119.553c18.574-19.473 47.096-24.274 69.358.668 22.262 24.943 33.745 44.776 46.278 54.381 12.532 9.606 39.013 22.13 44.342 40.93s2.815 81.5-21.395 103.747c-24.21 22.246-35.953 32.604-70.727 41.177s-59.694 20.2-76.088 26.733-98.838 20.608-121.103 26.18c-22.265 5.573-60.806 44.508-74.119 56.145-13.312 11.638-61.77 94.467-112.075 90.472-50.305-3.994-47.297-1.821-97.898-32.277-50.601-30.455-122.795-76.706-120.026-145.393 2.905-72.084 102.508-164.351 191.376-255.416z" style="font-variation-settings:normal;opacity:1;fill:none;fill-opacity:1;stroke:#17b42b;stroke-width:2;stroke-linecap:butt;stroke-linejoin:miter;stroke-miterlimit:4;stroke-dasharray:6,6;stroke-dashoffset:0;stroke-opacity:1;stop-color:#000;stop-opacity:1"/><path d="M1624.69 3595.235c46.899-48.363 128.728-128.564 147.674-137.983s65.014-37.293 80.285-9.58c15.27 27.713 35.011 87.034 48.143 100.182 13.132 13.149 27.858 40.948 62.052 8.099 34.193-32.85 63.797-77.948 83.659-86.03s47.081-1.969 64.453 30.302 29.937 55.547 50.595 71.899 70.605 51.656 70.144 69.08c-.461 17.425-10.903 38.048-10.298 50.483s7.644 83.719-6.826 109.066-48.111 47.402-76.09 55.787c-27.98 8.386-95.748 32.813-104.04 67.11-8.294 34.297-6.978 77.539-5.43 97.081s10.417 96.35-50.456 105.37c-60.874 9.019-96.196-3.288-133.171-27.786s-71.196-41.828-116.918-38.792c-45.721 3.035-65.376 2.722-84.502 5.812s-66.552 9.993-102.603-37.742-77.773-159.886-73.953-200.89c3.82-41.005 2.647-52.89 49.206-108.433s70.074-83.848 108.075-123.035z" style="font-variation-settings:normal;opacity:1;fill:none;fill-opacity:1;stroke:#17b42b;stroke-width:2;stroke-linecap:butt;stroke-linejoin:miter;stroke-miterlimit:4;stroke-dasharray:6,6;stroke-dashoffset:0;stroke-opacity:1;stop-color:#000;stop-opacity:1"/><path d="M1621.267 3574.123c26.853-25.945 24.644-31.374 53.96-65.308 34.864-40.354 100.833-107.79 125.262-113.428 44.971-10.378 72.63 37.416 84.017 59.468 11.386 22.053 35.25 59.258 48.961 60.729s26.022 13.403 53.069-42.566c25.976-53.756 52.582-77.018 64.688-80.262 24.505-6.567 46.39 5.097 57.06 25.113 10.67 20.017 32.834 76.554 42.366 87.74s8.931 13.345 26.784 25.247 69.739 49.407 75.682 56.222c5.944 6.816 31.166 30.39 33.734 56.903s-4.25 49.92-5.296 81.616.936 50.816 2.178 58.422 11.034 49.834.127 66.508-14.336 25.295-69.197 39.06c-54.86 13.766-102.16 42.774-122.526 98.61-20.368 55.835-21.09 71.125-25.602 93.197s-12.668 88.539-33.517 112.387-67.788 36.212-104.648 17.653-64.152-61.602-103.168-72.354-79.644 13.774-105.847 24.179-58.094 22.875-90.813 4.714-61.925-52.409-74.272-73.088c-12.347-20.68-50.39-75.298-57.511-88.884-7.12-13.585-34.716-71.205-43.57-117.87-8.856-46.663-15.115-96.547 11.593-135.56 26.708-39.015 79.927-104.479 156.486-178.448z" style="font-variation-settings:normal;opacity:1;fill:none;fill-opacity:1;stroke:#17b42b;stroke-width:2;stroke-linecap:butt;stroke-linejoin:miter;stroke-miterlimit:4;stroke-dasharray:6,6;stroke-dashoffset:0;stroke-opacity:1;stop-color:#000;stop-opacity:1"/><path d="M1725.847 3415.68c23.605-26.02 55.96-66.736 76.248-72.76 20.287-6.023 45.683 1.962 60.03 20.068 14.349 18.106 35.472 81.462 60.43 92.371 24.956 10.909 47.834-1.877 54.072-40.347 6.24-38.47 5.601-58.289 15.248-74.247s22.791-25.072 51.973-13.155c29.183 11.918 75.298 47.456 90.802 63.096s60.444 76.79 84.28 94.08 119.1 85.405 141.771 121.48c22.671 36.074 37.605 63.125 33.035 102.393-4.57 39.27-18.253 69.281-30.046 90.913-11.794 21.631-28.83 54.376-35.728 72.367-6.897 17.99-15.409 47.293-40.92 62.373-25.51 15.08-68.426 30.648-92.805 60.415-24.378 29.766-53.13 64.798-77.409 117.84-24.278 53.043-34.86 119.34-61.161 133.522s-74.216 25.588-122.666 1.83c-48.45-23.756-80.496-61.298-104.764-58.795-24.268 2.502-25.459-1.182-49.169 16.73s-59.032 52.558-99.861 47.913c-40.83-4.644-71.03-12.617-110.636-65.672-39.607-53.055-133.128-214.348-142.953-286.158s-11.35-100.163 12.043-154.03c23.394-53.865 106.197-124.716 142.229-165.364s94.892-110.58 145.957-166.864z" style="font-variation-settings:normal;opacity:1;fill:none;fill-opacity:1;stroke:#17b42b;stroke-width:2;stroke-linecap:butt;stroke-linejoin:miter;stroke-miterlimit:4;stroke-dasharray:6,6;stroke-dashoffset:0;stroke-opacity:1;stop-color:#000;stop-opacity:1"/><path d="M1841.27 503.592c14.217 18.326 34.855 42.475 32.014 89.626s-9.466 109.69 13.128 155.725 71.143 117.487 136.772 127.183c65.63 9.696 110.292-1.164 146.995 8.66s68.655 13.84 87.356 19.123c18.702 5.283 46.783 18.896 96.28 11.252s101.168-21.508 116.893-24.302 73.633-10.484 74.913 11.012c1.28 21.495-22.973 45.263-47.988 51.916s-140.387 46.65-178.57 76.562c-38.18 29.912-94.535 82.387-109.38 102.88-14.844 20.494-26.132 43.539-33.201 56.507-7.07 12.968-24.999 34.08-47.457 48.075s-132.527 80.75-152.008 94.75c-19.48 13.998-69.48 46.761-37.633 89.607 31.846 42.845 46.913 43.245 94.732 43.49 47.82.244 110.987-.85 132.932 30.17 21.945 31.023 23.366 51.78 8.486 76.766-14.88 24.985-74.175 82.193-67.803 130.757 6.372 48.563 21.206 95.915 44.894 133.16s43.138 76.394 31.827 103.325-33.019 53.163-91.415 66.126-153.477 29.387-194.373 87.544-40.284 71.109-41.872 114.615 5.717 116.175-27.294 144.482c-33.01 28.306-91.995 73.146-99.429 96.942s-21.235 54.796 3.271 95.223c24.507 40.427 40.865 55.449 47.177 99.578 6.313 44.13 11.237 73.523 44.095 86.202s63.675 14.907 107.428-30.295 71.856-73.884 106.735-92.372 77.414-58.73 95.477-103.48c18.064-44.749 23.55-83.27 41.3-108.19 17.75-24.922 35.9-55.412 43.361-91.191s4.154-74.591 30.246-108.887 48.278-59.62 94.938-57.023c46.66 2.598 129.63 24.927 162.874 9.275 33.246-15.651 47.385-49.805 47.385-86.896s-9.373-53.883-10.913-99.715 5.656-86.06 18.859-99.43c13.202-13.37 33.929-13.987 40.128 8.073 6.2 22.06 7.563 103.396 13.762 123.284s7.511 48.521 42.566 67.544 67.296 14.728 118.29-5.636c50.995-20.363 72.01-22.889 88.412-28.89 16.401-6.003 36.525-13.488 56.78-40.362s89.5-117.1 122.026-140.647c32.527-23.546 45.704-29.01 67.795-27.422 22.092 1.587 24.123 26.128 10.747 54.378s-51.258 95.251-59.318 112.47-27.694 54.718-5.81 67.69c21.885 12.973 82.023-.308 95.276 10.527 13.253 10.836 29.039 22.3 3.811 40.153s-120.437 20.718-147.742 26.124c-27.305 5.407-104.949 17.43-135.501 35.726-30.553 18.294-51.641 36.1-54.906 74.377s32.333 94.513 26.594 118.198c-5.74 23.685-29.027 44.865-72.172 35.956s-118.374-33.274-152.433-11.618-57.297 67.503-52.095 132.067 10.956 124.882-37.128 131.467-127.248-13.441-179.274-24.98-95.114-22.143-118.535-6.25c-23.42 15.892.422 52.758-9.248 72.666s-42.551 64.53-55.738 79.926-38.372 50.684-45.31 84.62c-6.94 33.936-3.816 47.54-.894 61.355 2.921 13.816 10.357 40.689 10.357 65.56 0 84.866 51.71 114.293 98.509 139.711 42.048 22.838 79.48 32.043 121.21 63.605 61.228 46.31 118.25 130.411 159.332 136.08 59.155 8.162 91.095-1.369 116.145-17.129 61.267-38.546 75.983-78.896 97.533-90.357 21.55-11.462 47.729-7.197 44.217 19.448s-46.399 96.056-50.514 107.12c-4.115 11.063-31.28 66.29-9.489 114.766 21.79 48.475 41.606 54.646 52.087 93.374s19.876 84.25 8.657 125.096-53.49 65.445-82.878 66.96-140.262 2.115-205.835-52.276c-65.574-54.39-135.661-150.665-177.3-183.564s-65.496-71.152-98.718-101.608-116.12-91.255-159.87-108.447c-43.75-17.191-59.673-12.788-69.044-5.979-9.372 6.81-16.558 22.311-18.428 48.51s-2.416 35.949-6.664 45.261-18.194 29.297-51.745-10.92c-33.551-40.215-41.854-70.003-65.04-80.233-23.188-10.231-39.613-15.492-66.754 9.777-27.14 25.27-99.4 152.391-125.24 178.101s-140.975 147.89-151.661 162.113-91.533 118.557-101.36 163.271c-9.826 44.715 4.662 116.007 14.609 145.41s19.183 49.21 29.123 61.786 44.455 70.405 49.511 82.282 31.395 66.97 39.255 89.293 53.81 102.09 101.76 124.723 89.512 27.732 151.655-24.677 69.547-42.639 176.191 48.98" style="font-variation-settings:normal;opacity:1;fill:none;fill-opacity:1;stroke:#17b42b;stroke-width:2;stroke-linecap:butt;stroke-linejoin:miter;stroke-miterlimit:4;stroke-dasharray:6,6;stroke-dashoffset:0;stroke-opacity:1;stop-color:#000;stop-opacity:1"/><path d="M1306.177 874.749c19.48 22.275 57.13 68.179 132.113 94.382s119.258 18.234 244.014 8 236.266-13.505 262.066-18.069 163.654-1.205 214.735 4.97c51.08 6.176 106.383 10 112.604 10 6.22 0 30.573 4.99 33.284 10.484s1.643 25.494-9.417 34.251c-11.06 8.758-67.5 34.903-80.36 45.097-12.858 10.194-39.624 40.152-45.147 47.867-5.523 7.716-21.271 28.106-56.582 47.386s-246.744 121.843-296.583 156.424c-49.838 34.582-187.594 162.96-212.044 197.922s-48.091 81.173-23.85 139.781c24.24 58.608 67.81 125.373 78.088 134.828s31.33 34.401 42.7 59.905c11.368 25.503 24.597 63.077 69.104 68.977s73.02.422 89.619-3.638c16.598-4.06 54.639-8.167 74.596-5.457 19.956 2.71 42.225 11.264 22.344 30.796-19.88 19.531-17.143 16.42-35.729 30.41s-57.552 34.55-93.63 63.461c-36.079 28.91-130.376 104.397-157.712 154.376s-55.01 153.56-49.64 240.023c5.369 86.464 47.2 214.261 47.2 214.261M138.133 2702.727c23.678 27.524 140.58 149.227 184.203 186.123s86.366 74.188 125.708 104.016c39.342 29.827 82.92 56.297 112.313 133.05 29.393 76.751 43.581 164.36 50.77 219.653 7.19 55.294 13.531 123.222 13.01 161.058-.52 37.835-3.272 82.717-29.9 153.894s-63.88 149.767-74.029 178.891c-10.148 29.125-12.76 33.326-13.883 58.262-1.124 24.935-5.806 53.004-12.467 80.208-6.66 27.205-42.788 123.5-63.399 158.803s-55.124 105.95-57.936 192.638" style="font-variation-settings:normal;opacity:1;fill:none;fill-opacity:1;stroke:#17b42b;stroke-width:2;stroke-linecap:butt;stroke-linejoin:miter;stroke-miterlimit:4;stroke-dasharray:6,6;stroke-dashoffset:0;stroke-opacity:1;stop-color:#000;stop-opacity:1"/><path d="M139.346 2740.016c23.837 28.667 84.005 92.455 104.868 112.935 20.864 20.48 49.284 48.165 78.322 74.252 29.038 26.088 130.668 111.834 147.816 125.027 17.148 13.194 47.76 39.763 59.757 75.377s23.987 94.618 25.94 136.62.912 173.137-8.67 246.72c-9.581 73.582-26.852 173.342-43.98 271.749-17.129 98.407-18.978 124.196-24.74 156.113-5.761 31.916-23.623 90.409-40.928 126.732s-82.363 153.094-95.566 186.686c-13.202 33.592-12.072 33.704-16.57 72.313" style="font-variation-settings:normal;opacity:1;fill:none;fill-opacity:1;stroke:#17b42b;stroke-width:2;stroke-linecap:butt;stroke-linejoin:miter;stroke-miterlimit:4;stroke-dasharray:6,6;stroke-dashoffset:0;stroke-opacity:1;stop-color:#000;stop-opacity:1"/><path d="M141.644 2820.357c15.264 21.52 69.255 76.422 96.46 98.296 27.205 21.873 194.99 153.662 213 178.643s45.5 46.667 26.583 124.515c-18.916 77.848-72.048 231.92-78.65 265.433s-9.655 43.276-9.06 90.384c.596 47.107 12.587 146.765 21.536 191.101 8.948 44.337 32.473 185.42 22.918 235.52s-20.288 69.043-50.793 114.252-45.47 53.813-63.102 92.318c-17.632 38.506-19.95 75.025-21.725 111.17" style="font-variation-settings:normal;opacity:1;fill:none;fill-opacity:1;stroke:#17b42b;stroke-width:2;stroke-linecap:butt;stroke-linejoin:miter;stroke-miterlimit:4;stroke-dasharray:6,6;stroke-dashoffset:0;stroke-opacity:1;stop-color:#000;stop-opacity:1"/><path d="M132.714 2924.796c28.86 29.818 49.078 52.079 96.606 70.576s84.555 29.185 114.718 42.707 82.15 44.047 99.095 79.36c16.946 35.312 18.428 71.482 10.656 99.035-7.77 27.554-46.312 109.984-61.767 145.934s-57.037 132.654-61.572 207.019c-4.534 74.365 15.196 130.984 31.392 180.819s51.473 166.338 51.847 195.987c.373 29.648 7.542 92.134-16.662 127.19-28.114 40.721-41.094 44.883-69.457 79.416-19.206 23.386-40.22 45.354-49.133 74.587-8.912 29.233-10.184 52.612-7.825 88.5" style="font-variation-settings:normal;opacity:1;fill:none;fill-opacity:1;stroke:#17b42b;stroke-width:2;stroke-linecap:butt;stroke-linejoin:miter;stroke-miterlimit:4;stroke-dasharray:6,6;stroke-dashoffset:0;stroke-opacity:1;stop-color:#000;stop-opacity:1"/><path d="M133.989 2966.481c12.448 9.7 52.703 38.249 81.03 53.279 28.328 15.03 26.63 15.044 53.142 24.893 26.511 9.849 85.153 28.059 112.983 53.34s36.721 59.147 32.014 95.776-24.918 79.519-39.543 110.15c-14.626 30.632-49.432 102.825-57.83 145.414-8.399 42.59-8.524 106.69-3.552 151.38 4.973 44.69 25.646 142.181 35.594 181.736 12.608 50.136 36.93 111.17 39.734 149.184s-.733 89.864-23.716 132.167-81.821 96.725-100.114 134.455c-20.753 42.803-15.384 54.973-11.439 125.447" style="font-variation-settings:normal;opacity:1;fill:none;fill-opacity:1;stroke:#17b42b;stroke-width:2;stroke-linecap:butt;stroke-linejoin:miter;stroke-miterlimit:4;stroke-dasharray:6,6;stroke-dashoffset:0;stroke-opacity:1;stop-color:#000;stop-opacity:1"/><path d="M130.337 2993.381c10.68 8.494 39.717 29.212 66.263 41.314s138.108 46.364 152.986 62.181 28.807 26.822 32.336 49.952 2.864 51.615-4.174 80.276-21.355 50.308-33.339 75.26c-11.983 24.954-56.636 100.994-62.167 141.203s1.477 117.201 5.16 151.602c3.685 34.4 25.883 153.935 43.396 210.404 17.514 56.47 31.287 130.509 28.832 168.074s-12.087 76.803-24.825 101.087-50.398 61.554-63.027 74.327-46.808 47.05-49.276 63.072c-2.467 16.022 4.493 44.258 7.062 65.383 2.57 21.126 2.238 48.053 2.238 48.053" style="font-variation-settings:normal;opacity:1;fill:none;fill-opacity:1;stroke:#17b42b;stroke-width:2;stroke-linecap:butt;stroke-linejoin:miter;stroke-miterlimit:4;stroke-dasharray:6,6;stroke-dashoffset:0;stroke-opacity:1;stop-color:#000;stop-opacity:1"/><path d="M129.984 3010.328c27.176 20.905 63.058 45.915 106.601 60.992s106.73 35.763 119.84 56.658c13.108 20.895 5.548 70.895-3.746 94.918-9.295 24.022-31.025 69.115-40.592 86.208-9.567 17.092-46.823 84.244-55.38 113.564s-8.263 89.129-2.957 126.51c5.305 37.381 25.097 153.532 35.149 183.696s42.753 145.437 44.929 195.575c2.176 50.139-1.489 110.341-27.782 149.928-26.294 39.587-55.7 66.94-74.099 83.902-18.398 16.96-45.333 40.918-40.04 75.971s13.539 51.64 15.376 86.584" style="font-variation-settings:normal;opacity:1;fill:none;fill-opacity:1;stroke:#17b42b;stroke-width:2;stroke-linecap:butt;stroke-linejoin:miter;stroke-miterlimit:4;stroke-dasharray:6,6;stroke-dashoffset:0;stroke-opacity:1;stop-color:#000;stop-opacity:1"/><path d="M130.301 3048.018c24.034 20.478 68.639 50.855 101.281 66.76s79.463 42.267 86.546 72.988-12.906 73.686-36.467 104.867c-23.562 31.182-126.526 137.553-125.565 193.309s29.971 113.189 50.716 153.982 75.38 152.254 86.325 196.473c10.944 44.219 30.904 134.332 18.667 182.167s-36.342 79.482-83.312 120.052-68.01 54.325-70.37 97.025 3.975 53.218 16.697 89.625" style="font-variation-settings:normal;opacity:1;fill:none;fill-opacity:1;stroke:#17b42b;stroke-width:2;stroke-linecap:butt;stroke-linejoin:miter;stroke-miterlimit:4;stroke-dasharray:6,6;stroke-dashoffset:0;stroke-opacity:1;stop-color:#000;stop-opacity:1"/><path d="M132.043 3085.605c19.322 14.18 45.346 30.919 73.608 44.556 28.261 13.637 51.642 30.68 61.45 47.14s15.11 45.779.41 71.68c-14.701 25.901-62.392 73.338-133.437 131.545" style="font-variation-settings:normal;opacity:1;fill:none;fill-opacity:1;stroke:#17b42b;stroke-width:2;stroke-linecap:butt;stroke-linejoin:miter;stroke-miterlimit:4;stroke-dasharray:6,6;stroke-dashoffset:0;stroke-opacity:1;stop-color:#000;stop-opacity:1"/><path d="M129.134 3134.499c40.892 57.155 38.066 100.475.415 180.458M126.353 3207.85c2.652 12.537 1.372 24.265 1.106 40.446" style="font-variation-settings:normal;opacity:1;fill:none;fill-opacity:1;stroke:#17b42b;stroke-width:2;stroke-linecap:butt;stroke-linejoin:miter;stroke-miterlimit:4;stroke-dasharray:6,6;stroke-dashoffset:0;stroke-opacity:1;stop-color:#000;stop-opacity:1"/></svg>